<?xml version="1.0" encoding="utf-8"?>
<!-- Generator: Adobe Illustrator 15.0.0, SVG Export Plug-In . SVG Version: 6.00 Build 0)  -->
<!DOCTYPE svg PUBLIC "-//W3C//DTD SVG 1.1//EN" "http://www.w3.org/Graphics/SVG/1.1/DTD/svg11.dtd">
<svg version="1.1" id="Layer_1" xmlns="http://www.w3.org/2000/svg" xmlns:xlink="http://www.w3.org/1999/xlink" x="0px" y="0px"
	 width="260px" height="110px" viewBox="0 0 260 110" enable-background="new 0 0 260 110" xml:space="preserve">
<ellipse fill="#D3D3D3" cx="156.691" cy="39.539" rx="0.242" ry="0"/>
<ellipse fill="#2B3D51" cx="154.691" cy="37.539" rx="0.242" ry="0"/>
<g>
	<path fill="#2B3D51" d="M162.978,28.6c-1.179-3.962-5.709-3.049-7.566,0.044c-0.962,1.601-1.189,3.707,0.001,5.109
		C158.125,36.955,164.255,32.896,162.978,28.6z"/>
	<path fill="#2B3D51" d="M52.297,14.5c-2.128-5.041-6.965,1.467-15.469,3.635c-6.632,1.691-11.728,1.031-12.441,2.996
		c-0.427,1.175-0.256,6.94,4.104,7.358c4.311,0.412,12.258-3.492,14.107-4.667c-0.224,20.749-1.484,61.602-21.979,61.602
		c-10.266,0-13.729-9.096-11.386-12.854c1.671-2.68,5.581-3.602,8.043-0.549c0.969,1.202,1.994,2.071,3.211,1.466
		c1.6-0.795,1.555-2.899,0.614-5.132c-1.189-2.817-3.836-4.729-7.983-4.729c-3.348,0-6.795,1.885-8.54,4.267
		c-6.484,8.852,0.113,23.869,16.013,23.869c27.85,0,29.37-45.285,29-71.021C50.784,19.221,53.5,17.35,52.297,14.5z"/>
	<path fill="#2B3D51" d="M235.939,42.504c0.659-2.253,3.779-10.449,0.632-16.865c-1.971-4.018-6.471-3.452-9.475-0.984
		c-1.488,1.223-3.061,3.29-3.062,7.903c-0.003,8.502,5.948,11.644,6.668,12.694c-2.039,5.087-6.204,7.731-7.927,7.553
		c-0.866-0.088-1.445-0.049-1.326-2.416c0.141-2.773,1.025-5.809,1.048-8.438c0.021-2.33-1.712-4.403-4.049-5.027
		c-2.062-0.551-6.25,0.258-9.042,7.446c-0.165-2.463,0.444-5.092,0.009-7.567c-0.136-0.778-0.366-1.494-1.028-1.976
		c-1.816-1.333-2.739,0.256-3.307,2.045c-1.098,3.471-5.031,7.723-6.426,8.296c-0.551-3.192-2.343-4.769-3.992-5.442
		c-6.299-2.572-14.853,5.4-15.4,13.651c-3.145,10.118-8.836,10.398-12.113,7.633c-4.987-4.208-1.707-13.975,2.4-14.843
		c1.575-0.334,1.592,1.354,1.577,2.725c-0.032,2.638,2.162,3.78,3.583,2.552c1.732-1.497,2.516-5.312,1.688-7.455
		c-2.196-5.679-17.094-1.297-17.844,10.28c-4.746,5.471-8.449,3.426-9.43,2.108c-1.994-2.679,5.813-13.286,6.5-14.109
		c2.115-2.529,1.392-4.602-0.252-5.288c-3.156-1.319-13.781,2.036-11.712,5.931c1.435,2.699,5.078-2.448,6.08-0.611
		c0.453,0.829-12.662,14.193-5.158,18.801c5.173,3.178,11.011,0.11,14.368-3.855c0,4.438,3.561,7.167,5.061,7.916
		c5.782,2.898,14.273,0.333,16.162-7.035c1.059,5.047,5.263,6.251,8.827,5.818c3.091-0.376,5.724-2.319,6.931-3.955
		c0.765-1.035,4.293-5.771,3.104-12.707c3.725-1.723,5.31-3.862,6.344-4.916c-0.315,2.777-1.312,11.235-1.197,15.068
		c0.054,1.771,4.355,1.797,4.794-0.082c0.387-1.659,0.414-4.077,0.46-4.964c0.056-1.096,3.662-10.089,6.324-10.058
		c2.938,0.035,2.207,3.616,1.985,5.312c-0.288,2.188-0.933,4.802,0.207,6.858c0.962,1.735,2.753,2.125,4.551,1.937
		c4.683-0.493,8.273-5.314,10.616-9.416c0.617,0.177,5.393,4.496,6.266,5.555c3.213,3.894,4.437,10.157,1.571,14.596
		c-3.589,5.557-12.096,2.364-13.877,0.242c1.85-7.768-3.469-9.116-6.456-7.533c-3.772,2-2.915,7.518-0.888,9.65
		c-19.354,17.004-59.171,13.134-83.074,2.582c-0.571-7.435-1.415-19.465,2.302-29.818c0.057-1.319-2.056-2.42-3.26-2.65
		c-0.817-0.156-1.438,1.27-2.124,3.191c-0.853,2.382-3.254,10.662-7.156,8.628c-2.694-1.403-1.569-6.828-0.474-9.69
		c0.761-1.989,1.106-3.28-0.06-4.044c-0.858-0.562-4.803-1.014-5.522,7.867c-0.274,3.377-2.035,7.664-4.253,10.849
		c-5.03,7.228-10.988,3.548-11.792,0.94c3.977-4.865,7.428-12.375,8.062-14.19c3.925-11.229,2.004-20.461-3.219-21.894
		c-7.109-1.949-11.234,7.229-12.554,14.482c-1.21,6.646-0.801,14.73,2.483,22.369c-6.872,9.305-16.958,1.625-17.749-9.055
		c5.947-5.903,9.983-12.661,12.686-19.936c4.264-11.469,5.306-26.893-2.385-28.063c-9.302-1.412-14.048,12.008-15.72,21.227
		c-1.77,9.766-1.614,20.478-0.298,26.458c-0.537,0.216-2.982,0.918-3.875,0.938c0.276-10.347-10.384-8.844-12.322-4.953
		c-2.379,4.777,0.889,9.223,7.191,8.259c-0.254,2.422-1.791,5.147-3.886,6.148c-1.855,0.888-4.24,0.523-5.656-1.115
		c-3.588-4.146,0.714-9.052,0.852-10.845c0.144-1.877-2.715-1.585-4.581,0.606c-3.088,3.627-3.851,10.175,0.306,14.583
		c3.146,3.334,8.112,3.647,12.042,1.153c3.057-1.94,5.488-5.579,5.948-10.815c2.072-0.3,3.035-0.804,4.631-1.258
		c2.924,13.654,16.747,19.873,25.182,8.989c2.212,2.696,10.379,7.29,16.79-2.286c1.383-2.065,2.369-4.301,2.841-5.958
		c0.297,2.872,1.917,4.493,3.89,4.977c2.891,0.713,6.536-1.014,7.873-4.813c-0.13,3.285-1.273,18.749-1.262,18.75
		c-11.123-3.551-22.074-2.433-30.616,2.671c-17.226,10.271-9.652,32.476,12.99,32.685c12.723,0.117,23.715-8.905,23.491-28.872
		c39.777,19.224,71.908,7.801,85.438-5.5c7.567,5.158,21.207,4.55,25.279-2.362C256.465,55.696,237.003,43.542,235.939,42.504z
		 M193.164,42.607c1.689-0.151,1.828,3.058,1.768,3.522c-0.816,0.112-1.622,0.063-2.312-0.353
		C191.144,44.884,191.234,42.78,193.164,42.607z M189.021,58.164c-6.05,0.583-5.85-11.443,0.241-14.394
		c-2.086,3.299,1.897,6.269,6.075,4.75C195.647,51.581,192.752,57.809,189.021,58.164z M232.562,39.651
		c-1.978-0.946-3.318-4.646-3.319-7.12c-0.002-5.797,4.033-5.241,4.415-0.967C233.797,33.103,233.829,37.78,232.562,39.651z
		 M66.942,50.044c-2.271,0.38-5.29-0.596-4.825-2.852c0.245-1.191,1.232-1.603,2.336-1.654
		C66.915,45.426,67.354,48.419,66.942,50.044z M81.314,44.682c-0.289-7.136,0.652-14.193,1.877-19.986
		c0.628-2.97,3.535-16.186,6.515-15.813c4.043,0.504,1.916,14.347,0.464,18.997C87.979,34.897,81.337,45.257,81.314,44.682z
		 M102.224,36.701c1.577-5.734,4.248-9.624,6.437-9.391c1.855,0.197,3.759,13.232-6.085,27.361
		C100.247,49.33,100.682,42.304,102.224,36.701z M113.676,98.3c-16.268,0.41-15.042-15.108-8.329-19.174
		c8.763-5.306,17.196-5.168,25.667-3.184C131.232,76.771,129.41,97.9,113.676,98.3z M223.727,63.954
		c-0.491-0.356-1.008-1.363-0.685-2.1c0.65-1.491,1.302,0.506,1.366,1.189C224.507,64.105,224.125,64.243,223.727,63.954z"/>
</g>
</svg>
